<svg xmlns="http://www.w3.org/2000/svg" width="199.45944213867188" height="211.6569061279297" viewBox="24.318199157714844 -19.833721160888672 199.45944213867188 211.6569061279297"><title>Neo4j Graph Visualization</title><desc>Created using Neo4j (http://www.neo4j.com/)</desc><g class="layer relationships"><g class="relationship" transform="translate(134.09017338105306 162.82318472970792) rotate(283.42441829717217)"><path class="outline" fill="#A5ABB6" stroke="none" d="M 5.987513214418485,-24.277555179777966 L 6.953439040707552,-24.018736134675446 A 45.89014220988936 45.89014220988936 0 0 1 13.795247602596277,-38.61421599022452 L 12.978412806154012,-39.19108765300674 A 46.89014220988936 46.89014220988936 0 0 0 5.987513214418485,-24.277555179777966 Z M 85.91315345247611,-43.751998922703606 L 85.17454957441294,-43.077859240360226 A 45.89014220988936 45.89014220988936 0 0 1 93.78137751146063,-29.448446579745394 L 91.00290726329149,-28.317030175392475 L 96.88442749631231,-23.153918734742877 L 97.4860045090195,-30.957001785549288 L 94.70753426085035,-29.82558538119637 A 46.89014220988936 46.89014220988936 0 0 0 85.91315345247611,-43.751998922703606"/><text text-anchor="middle" pointer-events="none" font-size="8px" fill="#000000" x="48.38460049612838" y="-55.441195963206624" font-family="sans-serif">ECONOMIC_FLIGHT</text></g><g class="relationship" transform="translate(158.7720371755066 59.415071985076935) rotate(187.3016747134826)"><path class="outline" fill="#A5ABB6" stroke="none" d="M 5.987513214418485,24.277555179777966 L 6.953439040707552,24.018736134675446 A 45.89179596503352 45.89179596503352 0 0 0 13.796384415320993,38.6160025002891 L 12.979569017828986,39.19290163048429 A 46.89179596503352 46.89179596503352 0 0 1 5.987513214418485,24.277555179777966 Z M 85.91502169950608,43.753727260827425 L 85.17643809423727,43.079565367786806 A 45.89179596503352 45.89179596503352 0 0 0 93.78456808855535,29.448491134640644 L 91.00609381771936,28.317084608982206 L 96.88759569356436,23.15395225696644 L 97.48920044966998,30.957033168851893 L 94.710726178834,29.825626643193456 A 46.89179596503352 46.89179596503352 0 0 1 85.91502169950608,43.753727260827425"/><text text-anchor="middle" pointer-events="none" font-size="8px" fill="#000000" x="48.38617699726306" y="61.44242361812225" transform="rotate(180 48.38617699726306 58.44242361812225)" font-family="sans-serif">ECONOMIC_FLIGHT</text></g><g class="relationship" transform="translate(134.09017338105306 162.82318472970792) rotate(283.42441829717217)"><path class="outline" fill="#A5ABB6" stroke="none" d="M 17.324116139070416,-18.03122292025696 L 18.031222920256962,-17.324116139070412 A 47.02074783849259 47.02074783849259 0 0 1 18.962860521859348,-18.23035107960859 L 18.27556707083935,-18.956730947298375 A 48.02074783849259 48.02074783849259 0 0 0 17.324116139070416,-18.03122292025696 Z M 81.05647544048242,-21.749668705142305 L 80.43639840696117,-20.965127774088053 A 47.02074783849259 47.02074783849259 0 0 1 81.44482787376721,-20.145200704984386 L 79.52025733711432,-17.843890589105264 L 87.13531323359398,-16.03808780544081 L 84.01092192263775,-23.213614192823215 L 82.08635138598486,-20.912304076944093 A 48.02074783849259 48.02074783849259 0 0 0 81.05647544048242,-21.749668705142305"/><text text-anchor="middle" pointer-events="none" font-size="8px" fill="#000000" x="49.16794328886284" y="-28.54921989743942" font-family="sans-serif">FIRST_CLASS…</text></g><g class="relationship" transform="translate(134.09017338105306 162.82318472970792) rotate(283.42441829717217)"><path class="outline" fill="#A5ABB6" stroke="none" d="M 24.018736134675446,-6.953439040707552 L 24.277555179777966,-5.987513214418485 A 104.32909750843066 104.32909750843066 0 0 1 25.436899431118572,-6.2910327205670455 L 25.189192762898703,-7.259867797615456 A 105.32909750843066 105.32909750843066 0 0 0 24.018736134675446,-6.953439040707552 Z M 74.0879998427094,-8.043348540151882 L 73.8714586607481,-7.067075055663651 A 104.32909750843066 104.32909750843066 0 0 1 75.03993159196862,-6.800852981571161 L 74.35670841877676,-3.8796877867193453 L 81.96985424215484,-5.693526443265467 L 75.9508958228911,-10.695739908040249 L 75.26767264969924,-7.774574713188434 A 105.32909750843066 105.32909750843066 0 0 0 74.0879998427094,-8.043348540151882"/><text text-anchor="middle" pointer-events="none" font-size="8px" fill="#000000" x="49.60050475809213" y="-7.028987720307228" font-family="sans-serif">BUSINES…</text></g><g class="relationship" transform="translate(158.7720371755066 59.415071985076935) rotate(187.3016747134826)"><path class="outline" fill="#A5ABB6" stroke="none" d="M 10.396609043987748,22.74116356711926 L 11.29757791189017,22.307279828001697 A 44.378816505968636 44.378816505968636 0 0 0 14.39668742225274,27.729739918214452 L 13.565551635859961,28.285809432373657 A 45.378816505968636 45.378816505968636 0 0 1 10.396609043987748,22.74116356711926 Z M 85.84640387912316,32.45450051889864 L 85.08470719854853,31.806566751603246 A 44.378816505968636 44.378816505968636 0 0 0 88.78665948799919,26.77634782656624 L 86.25131813849522,25.17258841770985 L 92.95132166691477,21.127844579199714 L 92.16711462067114,28.914693705041426 L 89.63177327116718,27.310934296185035 A 45.378816505968636 45.378816505968636 0 0 1 85.84640387912316,32.45450051889864"/><text text-anchor="middle" pointer-events="none" font-size="8px" fill="#000000" x="48.6974846829158" y="50.856396435789314" transform="rotate(180 48.6974846829158 47.856396435789314)" font-family="sans-serif">ECONOMIC_FLIGHT</text></g><g class="relationship" transform="translate(158.7720371755066 59.415071985076935) rotate(187.3016747134826)"><path class="outline" fill="#A5ABB6" stroke="none" d="M 14.44320574945421,20.411854586953456 L 15.247803529220876,19.818034401379958 A 44.78474506771666 44.78474506771666 0 0 0 17.106832011119877,22.168115313315067 L 16.34374453757664,22.814410530473133 A 45.78474506771666 45.78474506771666 0 0 1 14.44320574945421,20.411854586953456 Z M 83.02875006011507,26.21418411900649 L 82.33534792289582,25.4936333046292 A 44.78474506771666 44.78474506771666 0 0 0 84.42374254364614,23.344802204432057 L 82.20364064184376,21.32709371567223 L 89.5017460010528,18.500849181686476 L 87.38387841271599,26.035080189445157 L 85.1637765109136,24.01737170068533 A 45.78474506771666 45.78474506771666 0 0 1 83.02875006011507,26.21418411900649"/><text text-anchor="middle" pointer-events="none" font-size="8px" fill="#000000" x="48.975771487371084" y="41.449955737882256" transform="rotate(180 48.975771487371084 38.449955737882256)" font-family="sans-serif">ECONOMIC_FLI…</text></g><g class="relationship" transform="translate(158.7720371755066 59.415071985076935) rotate(463.42441829717217)"><path class="outline" fill="#A5ABB6" stroke="none" d="M 24.018736134675446,-6.953439040707552 L 24.277555179777966,-5.987513214418485 A 104.32909750843066 104.32909750843066 0 0 1 25.0134008698255,-6.1818086233653275 L 24.761634945162253,-7.149596781578921 A 105.32909750843066 105.32909750843066 0 0 0 24.018736134675446,-6.953439040707552 Z M 74.51887091729995,-7.946831694127681 L 74.29823902266018,-6.97147454565966 A 104.32909750843066 104.32909750843066 0 0 1 75.03993159196862,-6.800852981571161 L 74.35670841877676,-3.8796877867193453 L 81.96985424215484,-5.693526443265467 L 75.9508958228911,-10.695739908040249 L 75.26767264969924,-7.774574713188434 A 105.32909750843066 105.32909750843066 0 0 0 74.51887091729995,-7.946831694127681"/><text text-anchor="middle" pointer-events="none" font-size="8px" fill="#000000" x="49.60050475809213" y="-7.028987720307228" transform="rotate(180 49.60050475809213 -10.028987720307228)" font-family="sans-serif">ECONOM…</text></g><g class="relationship" transform="translate(158.7720371755066 59.415071985076935) rotate(187.3016747134826)"><path class="outline" fill="#A5ABB6" stroke="none" d="M 17.9862104268602,17.370844380187897 L 18.666383164631117,16.637792508358068 A 47.951240916209045 47.951240916209045 0 0 0 19.03438574106351,16.975698486718777 L 18.361887519517843,17.715797224738182 A 48.951240916209045 48.951240916209045 0 0 1 17.9862104268602,17.370844380187897 Z M 80.99132463772692,20.391427101138397 L 80.38439794693149,19.596669281422166 A 47.951240916209045 47.951240916209045 0 0 0 80.77987883211219,19.291380539524518 L 78.9343560704258,16.926207028744066 L 86.60620415088096,15.379356347386395 L 83.24057584769402,22.444945220565117 L 81.39505308600764,20.079771709784666 A 48.951240916209045 48.951240916209045 0 0 1 80.99132463772692,20.391427101138397"/><text text-anchor="middle" pointer-events="none" font-size="8px" fill="#000000" x="49.213481710096076" y="32.89413191208677" transform="rotate(180 49.213481710096076 29.89413191208677)" font-family="sans-serif">ECONOMIC_F…</text></g><g class="relationship" transform="translate(158.7720371755066 59.415071985076935) rotate(187.3016747134826)"><path class="outline" fill="#A5ABB6" stroke="none" d="M 20.90208894244944,13.724164012497553 L 21.434121018964774,12.87743981326927 A 56.10073203602565 56.10073203602565 0 0 0 22.172516349369804,13.333476269887335 L 21.653646228208828,14.188329355140233 A 57.10073203602565 57.10073203602565 0 0 1 20.90208894244944,13.724164012497553 Z M 77.60855900723622,16.044913382902372 L 77.14749575830092,15.157546108048706 A 56.10073203602565 56.10073203602565 0 0 0 77.91449635923516,14.75145868901774 L 76.49029107271534,12.111072485855598 L 84.31276504770014,11.86837738766518 L 79.8134367412616,18.271973626567263 L 78.38923145474178,15.63158742340512 A 57.10073203602565 57.10073203602565 0 0 1 77.60855900723622,16.044913382902372"/><text text-anchor="middle" pointer-events="none" font-size="8px" fill="#000000" x="49.40453057792598" y="24.94519391699447" transform="rotate(180 49.40453057792598 21.94519391699447)" font-family="sans-serif">ECONOMIC…</text></g><g class="relationship" transform="translate(158.7720371755066 59.415071985076935) rotate(463.42441829717217)"><path class="outline" fill="#A5ABB6" stroke="none" d="M 17.324116139070416,-18.03122292025696 L 18.031222920256962,-17.324116139070412 A 47.02074783849259 47.02074783849259 0 0 1 18.801787017473536,-18.07722184551855 L 18.111067982816742,-18.800345082016165 A 48.02074783849259 48.02074783849259 0 0 0 17.324116139070416,-18.03122292025696 Z M 81.23421150491197,-21.608507874096894 L 80.6104332365614,-20.826906523065837 A 47.02074783849259 47.02074783849259 0 0 1 81.44482787376721,-20.145200704984386 L 79.52025733711432,-17.843890589105264 L 87.13531323359398,-16.03808780544081 L 84.01092192263775,-23.213614192823215 L 82.08635138598486,-20.912304076944093 A 48.02074783849259 48.02074783849259 0 0 0 81.23421150491197,-21.608507874096894"/><text text-anchor="middle" pointer-events="none" font-size="8px" fill="#000000" x="49.16794328886284" y="-28.54921989743942" transform="rotate(180 49.16794328886284 -31.54921989743942)" font-family="sans-serif">BUSINESS_FL…</text></g><g class="relationship" transform="translate(158.7720371755066 59.415071985076935) rotate(187.3016747134826)"><path class="outline" fill="#A5ABB6" stroke="none" d="M 23.08917320392191,9.598962483481976 L 23.454514228288303,8.668088734837774 A 76.16718050783801 76.16718050783801 0 0 0 25.66440253181256,9.496131637230022 L 25.328075162524243,10.437876772958148 A 77.16718050783801 77.16718050783801 0 0 1 23.08917320392191,9.598962483481976 Z M 73.91570947208062,11.539136015843027 L 73.62239566503204,10.58311979705033 A 76.16718050783801 76.16718050783801 0 0 0 75.8675312115214,9.856051890905968 L 74.89916054047355,7.016640289278913 L 82.6542200604925,8.06975559206548 L 77.15869210625188,13.64193402640871 L 76.19032143520403,10.802522424781655 A 77.16718050783801 77.16718050783801 0 0 1 73.91570947208062,11.539136015843027"/><text text-anchor="middle" pointer-events="none" font-size="8px" fill="#000000" x="49.54426214024618" y="17.413555199725053" transform="rotate(180 49.54426214024618 14.413555199725053)" font-family="sans-serif">BUSINES…</text></g><g class="relationship" transform="translate(158.7720371755066 59.415071985076935) rotate(187.3016747134826)"><path class="outline" fill="#A5ABB6" stroke="none" d="M 24.471206027250748,5.139073415689509 L 24.657117634413662,4.15650694245622 A 143.2099520304685 143.2099520304685 0 0 0 25.304616628625897,4.277478613366782 L 25.123226348263472,5.260889802132738 A 144.2099520304685 144.2099520304685 0 0 1 24.471206027250748,5.139073415689509 Z M 74.17237859560304,5.824803755058383 L 74.0136456628534,4.837482198491983 A 143.2099520304685 143.2099520304685 0 0 0 74.66375474257396,4.731429017805876 L 74.17393728716114,1.771685978220697 L 81.65145807750818,4.081812128440161 L 75.31684468312439,8.677753070586114 L 74.82702722771157,5.718010031000935 A 144.2099520304685 144.2099520304685 0 0 1 74.17237859560304,5.824803755058383"/><text text-anchor="middle" pointer-events="none" font-size="8px" fill="#000000" x="49.629398003836215" y="10.143664692462835" transform="rotate(180 49.629398003836215 7.143664692462835)" font-family="sans-serif">BUSINES…</text></g><g class="relationship" transform="translate(158.7720371755066 59.415071985076935) rotate(187.3016747134826)"><path class="outline" fill="#A5ABB6" stroke="none" d="M 25 0.5 L 25.097444828692332 0.5 L 25.097444828692332 -0.5 L 25 -0.5 Z M 74.21853857869233 0.5 L 74.31598340738466 0.5 L 74.31598340738466 3.5 L 81.31598340738466 0 L 74.31598340738466 -3.5 L 74.31598340738466 -0.5 L 74.21853857869233 -0.5 Z"/><text text-anchor="middle" pointer-events="none" font-size="8px" fill="#000000" x="49.65799170369233" y="3" transform="rotate(180 49.65799170369233 0)" font-family="sans-serif">BUSINES…</text></g><g class="relationship" transform="translate(158.7720371755066 59.415071985076935) rotate(187.3016747134826)"><path class="outline" fill="#A5ABB6" stroke="none" d="M 24.471206027250748,-5.139073415689509 L 24.657117634413662,-4.15650694245622 A 143.2099520304685 143.2099520304685 0 0 1 25.304616628625915,-4.277478613366782 L 25.12322634826349,-5.260889802132738 A 144.2099520304685 144.2099520304685 0 0 0 24.471206027250748,-5.139073415689509 Z M 74.17237859560302,-5.824803755058383 L 74.01364566285338,-4.837482198491983 A 143.2099520304685 143.2099520304685 0 0 1 74.66375474257396,-4.731429017805876 L 74.17393728716114,-1.771685978220697 L 81.65145807750818,-4.081812128440161 L 75.31684468312439,-8.677753070586114 L 74.82702722771157,-5.718010031000935 A 144.2099520304685 144.2099520304685 0 0 0 74.17237859560302,-5.824803755058383"/><text text-anchor="middle" pointer-events="none" font-size="8px" fill="#000000" x="49.629398003836215" y="-4.143664692462835" transform="rotate(180 49.629398003836215 -7.143664692462835)" font-family="sans-serif">BUSINES…</text></g><g class="relationship" transform="translate(158.7720371755066 59.415071985076935) rotate(187.3016747134826)"><path class="outline" fill="#A5ABB6" stroke="none" d="M 23.08917320392191,-9.598962483481976 L 23.454514228288303,-8.668088734837774 A 76.16718050783801 76.16718050783801 0 0 1 25.664402531812527,-9.496131637230008 L 25.328075162524215,-10.437876772958134 A 77.16718050783801 77.16718050783801 0 0 0 23.08917320392191,-9.598962483481976 Z M 73.91570947208061,-11.539136015843027 L 73.62239566503203,-10.583119797050344 A 76.16718050783801 76.16718050783801 0 0 1 75.8675312115214,-9.856051890905968 L 74.89916054047355,-7.016640289278913 L 82.6542200604925,-8.06975559206548 L 77.15869210625188,-13.64193402640871 L 76.19032143520403,-10.802522424781655 A 77.16718050783801 77.16718050783801 0 0 0 73.91570947208061,-11.539136015843027"/><text text-anchor="middle" pointer-events="none" font-size="8px" fill="#000000" x="49.54426214024615" y="-11.413555199725053" transform="rotate(180 49.54426214024615 -14.413555199725053)" font-family="sans-serif">BUSINES…</text></g><g class="relationship" transform="translate(158.7720371755066 59.415071985076935) rotate(187.3016747134826)"><path class="outline" fill="#A5ABB6" stroke="none" d="M 20.90208894244944,-13.724164012497553 L 21.434121018964774,-12.87743981326927 A 56.10073203602565 56.10073203602565 0 0 1 22.545739246793474,-13.558033349319182 L 22.033521853393413,-14.416889182331012 A 57.10073203602565 57.10073203602565 0 0 0 20.90208894244944,-13.724164012497553 Z M 77.21436833095123,-16.24778968990946 L 76.76020850798315,-15.356869460482827 A 56.10073203602565 56.10073203602565 0 0 1 77.91449635923516,-14.75145868901774 L 76.49029107271534,-12.111072485855598 L 84.31276504770014,-11.86837738766518 L 79.8134367412616,-18.271973626567263 L 78.38923145474178,-15.63158742340512 A 57.10073203602565 57.10073203602565 0 0 0 77.21436833095123,-16.24778968990946"/><text text-anchor="middle" pointer-events="none" font-size="8px" fill="#000000" x="49.40453057792598" y="-18.94519391699447" transform="rotate(180 49.40453057792598 -21.94519391699447)" font-family="sans-serif">FIRST_CLA…</text></g><g class="relationship" transform="translate(158.7720371755066 59.415071985076935) rotate(187.3016747134826)"><path class="outline" fill="#A5ABB6" stroke="none" d="M 17.9862104268602,-17.370844380187897 L 18.666383164631117,-16.637792508358068 A 47.951240916209045 47.951240916209045 0 0 1 18.86736619760878,-16.823213873471204 L 18.191384864046334,-17.56013261843237 A 48.951240916209045 48.951240916209045 0 0 0 17.9862104268602,-17.370844380187897 Z M 81.17448229794888,-20.25087143002836 L 80.563813972482,-19.45898495061892 A 47.951240916209045 47.951240916209045 0 0 1 80.77987883211219,-19.291380539524518 L 78.9343560704258,-16.926207028744066 L 86.60620415088096,-15.379356347386395 L 83.24057584769402,-22.444945220565117 L 81.39505308600764,-20.079771709784666 A 48.951240916209045 48.951240916209045 0 0 0 81.17448229794888,-20.25087143002836"/><text text-anchor="middle" pointer-events="none" font-size="8px" fill="#000000" x="49.21348171009607" y="-26.89413191208677" transform="rotate(180 49.21348171009607 -29.89413191208677)" font-family="sans-serif">FIRST_CLASS…</text></g><g class="relationship" transform="translate(158.7720371755066 59.415071985076935) rotate(463.42441829717217)"><path class="outline" fill="#A5ABB6" stroke="none" d="M 5.987513214418485,-24.277555179777966 L 6.953439040707552,-24.018736134675446 A 45.89014220988936 45.89014220988936 0 0 1 11.214845598322974,-34.51772091982636 L 10.341780816964317,-35.00532515232558 A 46.89014220988936 46.89014220988936 0 0 0 5.987513214418485,-24.277555179777966 Z M 89.05071147894333,-39.92732042783922 L 88.24519464479604,-39.33474753788782 A 45.89014220988936 45.89014220988936 0 0 1 93.78137751146063,-29.448446579745394 L 91.00290726329149,-28.317030175392475 L 96.88442749631231,-23.153918734742877 L 97.4860045090195,-30.957001785549288 L 94.70753426085035,-29.82558538119637 A 46.89014220988936 46.89014220988936 0 0 0 89.05071147894333,-39.92732042783922"/><text text-anchor="middle" pointer-events="none" font-size="8px" fill="#000000" x="48.38460049612838" y="-55.441195963206624" transform="rotate(180 48.38460049612838 -58.441195963206624)" font-family="sans-serif">FIRST_CLASS_FLIGHT</text></g><g class="relationship" transform="translate(158.7720371755066 59.415071985076935) rotate(187.3016747134826)"><path class="outline" fill="#A5ABB6" stroke="none" d="M 14.44320574945421,-20.411854586953456 L 15.247803529220876,-19.818034401379958 A 44.78474506771666 44.78474506771666 0 0 1 16.129881310327022,-20.97347837009206 L 15.344979473448326,-21.59309850086934 A 45.78474506771666 45.78474506771666 0 0 0 14.44320574945421,-20.411854586953456 Z M 84.14654498701495,-25.100779777190365 L 83.42872871523522,-24.404547201129557 A 44.78474506771666 44.78474506771666 0 0 1 84.42374254364614,-23.344802204432057 L 82.20364064184376,-21.32709371567223 L 89.5017460010528,-18.500849181686476 L 87.38387841271599,-26.035080189445157 L 85.1637765109136,-24.01737170068533 A 45.78474506771666 45.78474506771666 0 0 0 84.14654498701495,-25.100779777190365"/><text text-anchor="middle" pointer-events="none" font-size="8px" fill="#000000" x="48.97577148737108" y="-35.449955737882256" transform="rotate(180 48.97577148737108 -38.449955737882256)" font-family="sans-serif">FIRST_CLASS_F…</text></g><g class="relationship" transform="translate(158.7720371755066 59.415071985076935) rotate(187.3016747134826)"><path class="outline" fill="#A5ABB6" stroke="none" d="M 10.396609043987748,-22.74116356711926 L 11.29757791189017,-22.307279828001697 A 44.378816505968636 44.378816505968636 0 0 1 11.928892413142798,-23.566682512737607 L 11.042149127420288,-24.028944716715007 A 45.378816505968636 45.378816505968636 0 0 0 10.396609043987748,-22.74116356711926 Z M 88.84246409269758,-28.515962639982753 L 88.0147440901357,-27.95482130541636 A 44.378816505968636 44.378816505968636 0 0 1 88.78665948799919,-26.77634782656624 L 86.25131813849522,-25.17258841770985 L 92.95132166691477,-21.127844579199714 L 92.16711462067114,-28.914693705041426 L 89.63177327116718,-27.310934296185035 A 45.378816505968636 45.378816505968636 0 0 0 88.84246409269758,-28.515962639982753"/><text text-anchor="middle" pointer-events="none" font-size="8px" fill="#000000" x="48.697484682915785" y="-44.856396435789314" transform="rotate(180 48.697484682915785 -47.856396435789314)" font-family="sans-serif">FIRST_CLASS_FLIGHT</text></g><g class="relationship" transform="translate(158.7720371755066 59.415071985076935) rotate(187.3016747134826)"><path class="outline" fill="#A5ABB6" stroke="none" d="M 5.987513214418485,-24.277555179777966 L 6.953439040707552,-24.018736134675446 A 45.89179596503352 45.89179596503352 0 0 1 11.21583586520326,-34.51959733163834 L 10.342789315805938,-35.007234207382396 A 46.89179596503352 46.89179596503352 0 0 0 5.987513214418485,-24.277555179777966 Z M 89.05270084513134,-39.92915034920368 L 88.24720406067942,-39.33655020556749 A 45.89179596503352 45.89179596503352 0 0 1 93.78456808855535,-29.448491134640644 L 91.00609381771936,-28.317084608982206 L 96.88759569356436,-23.15395225696644 L 97.48920044966998,-30.957033168851893 L 94.710726178834,-29.825626643193456 A 46.89179596503352 46.89179596503352 0 0 0 89.05270084513134,-39.92915034920368"/><text text-anchor="middle" pointer-events="none" font-size="8px" fill="#000000" x="48.38617699726304" y="-55.44242361812225" transform="rotate(180 48.38617699726304 -58.44242361812225)" font-family="sans-serif">FIRST_CLASS_FLIGHT</text></g></g><g class="layer nodes"><g class="node" transform="translate(134.09017338105306,162.82318472970792)"><circle class="outline" cx="0" cy="0" r="25" fill="#4C8EDA" stroke="#2870c2" stroke-width="2px"/><text text-anchor="middle" pointer-events="none" font-family="sans-serif" dy="1.5625" font-size="25" fill="#FFFFFF"/><text text-anchor="middle" pointer-events="none" x="0" y="5" font-size="10px" fill="#FFFFFF" font-family="sans-serif"> MSN</text></g><g class="node" transform="translate(158.7720371755066,59.415071985076935)"><circle class="outline" cx="0" cy="0" r="25" fill="#4C8EDA" stroke="#2870c2" stroke-width="2px"/><text text-anchor="middle" pointer-events="none" font-family="sans-serif" dy="1.5625" font-size="25" fill="#FFFFFF"/><text text-anchor="middle" pointer-events="none" x="0" y="5" font-size="10px" fill="#FFFFFF" font-family="sans-serif"> ORD</text></g><g class="node" transform="translate(53.31819897837221,45.90299082147041)"><circle class="outline" cx="0" cy="0" r="25" fill="#4C8EDA" stroke="#2870c2" stroke-width="2px"/><text text-anchor="middle" pointer-events="none" font-family="sans-serif" dy="1.5625" font-size="25" fill="#FFFFFF"/><text text-anchor="middle" pointer-events="none" x="0" y="5" font-size="10px" fill="#FFFFFF" font-family="sans-serif"> GRR</text></g></g></svg>